<svg version="1.1" xmlns="http://www.w3.org/2000/svg" width="439" height="512" viewBox="0 0 439 512"><title>globe</title><path d="M219.429 36.572c121.143 0 219.429 98.285 219.429 219.428s-98.286 219.428-219.429 219.428-219.429-98.286-219.429-219.429 98.285-219.429 219.429-219.429zM297.714 185.429c-2.286 1.714-3.714 4.857-6.572 5.429 1.428-0.286 2.857-5.428 3.714-6.572 1.714-2 4-3.143 6.286-4.286 4.857-2 9.714-2.571 14.857-3.429 4.857-1.143 10.857-1.143 14.572 3.143-0.857-0.857 6-6.857 6.857-7.143 2.572-1.429 6.857-0.857 8.572-3.429 0.572-0.857 0.572-6.286 0.572-6.286-4.857 0.571-6.572-4-6.857-8 0 0.286-0.572 1.143-1.714 2.286 0.286-4.286-5.143-1.143-7.143-1.714-6.572-1.714-5.714-6.286-7.714-11.143-1.143-2.571-4.286-3.429-5.428-6-1.143-1.714-1.714-5.429-4.286-5.714-1.714-0.286-4.857 6-5.428 5.714-2.572-1.429-3.714 0.571-5.714 1.714-1.714 1.143-3.143 0.571-4.857 1.429 5.143-1.714-2.286-4.572-4.857-4 4-1.143 2-5.428-0.286-7.428h1.428c-0.572-2.572-8.572-4.857-11.143-6.572s-16.286-4.572-19.143-2.857c-3.428 2 0.857 7.715 0.857 10.572 0.286 3.429-3.428 4.286-3.428 7.143 0 4.857 9.143 4 6.857 10.572-1.428 4-6.857 4.857-9.143 8-2.286 2.857 0.286 8 2.572 10 2.286 1.714-4 4.572-4.857 5.143-4.857 2.286-8.572-4.857-9.714-9.143-0.857-3.143-1.143-6.857-4.572-8.572-1.714-0.571-7.143-1.429-8.286 0.286-1.714-4.286-7.714-6-11.714-7.428-5.714-2-10.572-2-16.572-1.143 2-0.286-0.571-9.143-5.428-7.714 1.429-2.857 0.857-6 1.429-8.857 0.571-2.285 1.714-4.572 3.429-6.572 0.571-1.143 6.857-7.715 4.857-8 4.857 0.572 10.286 0.857 14.286-3.143 2.571-2.572 3.714-6.857 6.286-9.715 3.714-4.285 8.286 1.143 12.286 1.428 5.714 0.285 5.429-6 2.286-8.857 3.714 0.285 0.571-6.572-1.429-7.428-2.571-0.857-12.286 1.715-7.143 3.715-1.143-0.572-8 13.715-12 6.572-1.143-1.428-1.714-7.428-4.286-7.715-2.286 0-3.714 2.572-4.571 4.285 1.429-3.715-8-6.285-10-6.572 4.286-2.857 0.857-6-2.286-7.715-2.286-1.428-9.428-2.572-11.428-0.285-5.428 6.572 5.714 7.428 8.572 9.143 0.857 0.572 4.286 2.572 2.286 4-1.714 0.857-6.857 2.285-7.428 3.428-1.714 2.572 2 5.428-0.571 8-2.571-2.572-2.571-6.857-4.571-9.715 2.571 3.143-10.286 1.428-10 1.428-4.286 0-11.143 2.857-14.286-1.428-0.571-1.143-0.571-7.715 1.143-6.285-2.571-2-4.286-4-6-5.143-9.429 3.143-18.285 7.143-26.857 11.715 1.143 0.285 2 0.285 3.429-0.285 2.286-0.857 4.286-2.285 6.571-3.428 2.857-1.143 8.857-4.572 12-2 0.286-0.572 1.143-1.143 1.429-1.428 2 2.285 4 4.572 5.714 7.143-2.286-1.143-6-0.572-8.571-0.285-2 0.572-5.428 1.143-6.286 3.428 0.857 1.428 2 3.715 1.429 5.143-3.714-2.572-6.571-6.857-11.714-7.428-2.286 0-4.571 0-6.286 0.285-27.428 15.143-50.572 37.143-67.143 63.428 1.143 1.143 2.285 2 3.428 2.286 2.857 0.857 0 9.143 5.428 4.857 1.715 1.429 2 3.429 0.857 5.429 0.285-0.286 11.715 7.143 12.572 7.714 2 1.714 5.143 3.714 6 6 0.572 2-1.143 4.286-2.857 5.143-0.285-0.571-4.572-4.857-5.143-3.714-0.857 1.429 0 9.143 3.143 8.857-4.572 0.286-2.572 18-3.715 21.428 0 0.286 0.572 0.286 0.572 0.286-0.857 3.429 2 16.857 7.715 15.428-3.715 0.857 6.572 14 8 14.857 3.715 2.571 8 4.286 10.572 8 2.857 4 2.857 10 6.857 13.143-1.143 3.428 6 7.428 5.715 12.286-0.572 0.286-0.857 0.286-1.428 0.572 1.428 4 6.857 4 8.857 7.714 1.143 2.286 0 7.714 3.714 6.572 0.571-6.286-3.714-12.572-6.857-17.714-1.715-2.857-3.428-5.428-4.857-8.286-1.428-2.572-1.715-5.714-2.857-8.572 1.143 0.286 7.428 2.572 6.857 3.428-2.285 5.714 9.143 15.714 12.286 19.428 0.857 0.857 7.428 9.428 4 9.428 3.714 0 8.857 5.714 10.572 8.572 2.571 4.286 2 9.714 3.714 14.286 1.714 5.714 9.714 8.286 14.286 10.857 4 2 7.428 4.857 11.428 6.286 6 2.286 7.428 0.286 12.572-0.572 7.428-1.143 8.286 7.143 14.286 10.286 3.714 2 11.714 4.857 15.714 3.143-1.714 0.572 6 12.286 6.572 13.143 2.571 3.428 7.428 5.143 10.286 8.572 0.857-0.572 1.714-1.428 2-2.572-1.143 3.143 4.286 9.143 7.143 8.572 3.143-0.572 4-6.857 4-9.143-5.714 2.857-10.857 0.572-14-5.143-0.571-1.428-5.143-9.428-1.143-9.428 5.428 0 1.714-4.286 1.143-8.286s-4.571-6.572-6.571-10c-1.714 3.428-7.428 2.572-9.143-0.286 0 0.857-0.857 2.286-0.857 3.428-1.429 0-2.857 0.286-4.286-0.286 0.571-3.428 0.857-7.714 1.714-11.428 1.429-5.143 10.857-15.143-1.429-14.572-4.286 0.286-6 2-7.429 5.714-1.429 3.428-0.857 6.572-4.857 8.286-2.571 1.143-11.143 0.572-13.714-0.857-5.429-3.143-9.143-13.143-9.143-18.857-0.286-7.714 3.714-14.572 0-21.714 1.714-1.428 3.429-4.286 5.428-5.714 1.714-1.143 3.714 0.857 4.572-2.572-0.857-0.572-2-1.714-2.286-1.714 4.286 2 12.286-2.857 16 0 2.286 1.714 4.857 2.286 6.286-0.572 0.286-0.857-2-4.286-0.857-6.572 0.857 4.857 4 5.714 8.286 2.572 1.714 1.714 6.286 1.143 9.429 2.857 3.143 2 3.714 5.143 7.428 0.857 2.286 3.428 2.571 3.428 3.429 6.857 0.857 3.143 2.571 11.143 5.429 12.572 6 3.714 4.572-6.286 4-9.714-0.286-0.286-0.286-9.714-0.571-9.714-9.143-2-5.714-9.143-0.571-14 0.857-0.572 7.428-2.857 10.286-5.143 2.572-2.286 5.714-6.286 4.286-10 1.428 0 2.572-1.143 3.143-2.571-0.857-0.286-4.286-3.143-4.857-2.857 2-1.143 1.714-2.857 0.572-4.571 2.857-1.714 1.428-4.857 4.286-6 3.143 4.286 9.428-0.571 6.286-4 2.857-4 9.428-2 11.143-5.714 4.286 1.143 1.143-4.286 3.428-7.428 2-2.571 5.428-2.571 8-4 0 0.286 7.143-4 4.857-4.286 4.857 0.571 14.572-4.572 7.143-8.857 1.143-2.571-2.572-3.714-5.143-4.286 2-0.571 4.572 0.571 6.286-0.571 3.714-2.571 1.143-3.714-2-4.572-4-1.143-9.143 1.429-12.286 3.429zM251.143 436c39.143-6.857 74-26.286 100.285-54-1.714-1.714-4.857-1.143-7.143-2.286-2.286-0.857-4-1.714-6.857-2.286 0.572-5.714-5.714-7.714-9.714-10.572-3.714-2.857-6-6-11.428-4.857-0.572 0.286-6.286 2.286-5.143 3.428-3.714-3.143-5.428-4.857-10.286-6.286-4.572-1.428-7.714-7.143-12.286-2-2.286 2.286-1.143 5.714-2.286 8-3.714-3.143 3.428-6.857 0.572-10.286-3.428-4-9.428 2.572-12.286 4.286-1.714 1.428-3.714 2-4.857 3.714-1.428 2-2 4.572-3.143 6.572-0.857-2.286-5.714-1.714-6-3.428 1.143 6.857 1.143 14 2.572 20.857 0.857 4 0 10.572-3.428 13.714s-7.714 6.572-8.286 11.428c-0.571 3.428 0.286 6.572 3.429 7.428 0.286 4.286-4.571 7.428-4.286 12 0 0.286 0.286 3.143 0.571 4.572z"></path></svg>